<svg width="601" height="368" viewBox="0 0 601 368" fill="none" xmlns="http://www.w3.org/2000/svg">
<path d="M445.933 190.943C450.952 190.072 455.031 189.375 458.168 188.852C461.462 188.155 464.128 187.633 466.167 187.284C468.52 186.762 470.324 186.326 471.579 185.978C472.833 185.629 474.637 185.107 476.99 184.41C479.029 183.713 481.696 182.929 484.99 182.058C488.283 181.013 492.44 179.619 497.459 177.877C496.204 179.619 495.185 181.187 494.401 182.581C493.773 183.8 493.146 184.845 492.518 185.717C491.891 186.762 491.342 187.72 490.871 188.591C490.401 189.462 489.93 190.769 489.46 192.511C489.146 193.904 488.754 195.908 488.283 198.521C487.813 200.96 487.421 204.183 487.107 208.189C495.577 202.266 503.341 197.824 510.4 194.862C517.615 191.901 523.889 189.81 529.222 188.591C535.496 187.197 541.143 186.675 546.162 187.023C552.436 187.546 558.24 189.114 563.573 191.727C569.063 194.166 574.004 197.127 578.395 200.611C582.787 204.096 586.63 207.928 589.924 212.109C593.218 216.29 595.806 220.471 597.688 224.652C598.943 227.44 599.727 231.446 600.041 236.673C600.512 241.899 600.041 247.474 598.63 253.397C597.218 259.32 594.708 265.156 591.101 270.905C587.65 276.479 582.709 280.922 576.278 284.232C565.141 289.806 554.083 292.942 543.104 293.639C538.398 293.987 533.536 293.813 528.516 293.116C523.654 292.42 518.713 290.939 513.694 288.674C508.831 286.409 504.126 283.187 499.577 279.005C495.028 274.65 490.871 269.076 487.107 262.281C485.852 271.166 484.911 278.918 484.284 285.538C483.813 291.984 483.499 297.385 483.343 301.74C483.186 306.792 483.186 311.06 483.343 314.544C483.656 318.028 484.284 321.774 485.225 325.781C486.009 329.265 487.107 333.272 488.519 337.801C490.087 342.505 492.048 347.383 494.401 352.435C493.46 352.086 492.126 351.825 490.401 351.651C488.832 351.651 487.185 351.825 485.46 352.173C483.578 352.522 481.46 352.87 479.108 353.219C476.912 353.741 474.48 354.351 471.814 355.048C469.618 355.57 467.03 356.18 464.05 356.877C461.226 357.748 458.324 358.706 455.344 359.751C457.07 357.487 458.403 354.874 459.344 351.912C460.442 349.125 461.305 346.512 461.932 344.073C462.56 341.111 463.109 338.149 463.579 335.188C463.736 332.575 463.971 327.61 464.285 320.293C464.755 313.15 465.148 304.876 465.461 295.468C465.775 285.887 466.01 275.87 466.167 265.417C466.481 254.965 466.638 245.296 466.638 236.411C466.795 227.352 466.795 219.687 466.638 213.416C466.481 207.144 466.167 203.486 465.697 202.441C465.069 201.221 463.893 199.915 462.167 198.521C460.756 197.301 458.717 196.082 456.05 194.862C453.54 193.643 450.168 192.336 445.933 190.943ZM501.93 238.502C500.832 242.509 500.596 246.428 501.224 250.261C501.851 254.094 503.42 257.665 505.929 260.975C508.596 264.285 512.282 267.246 516.988 269.86C521.85 272.298 527.889 274.128 535.104 275.347C542.319 276.567 547.809 276.392 551.574 274.824C555.338 273.257 558.083 270.818 559.808 267.508C561.691 264.023 562.945 260.017 563.573 255.487C564.2 250.784 564.985 245.906 565.926 240.854C566.867 235.976 566.71 231.011 565.455 225.959C564.2 220.733 562.396 216.029 560.044 211.848C557.848 207.667 555.338 204.27 552.515 201.657C549.848 198.869 547.495 197.476 545.456 197.476C540.594 197.476 535.81 198.869 531.104 201.657C526.399 204.444 522.085 207.928 518.164 212.109C514.243 216.29 510.792 220.82 507.812 225.697C504.988 230.401 503.028 234.669 501.93 238.502Z" fill="#D9D9D9"/>
<path d="M343.561 208.089C344.347 207.041 344.818 205.119 344.975 202.323C345.29 199.352 345.918 196.032 346.861 192.363C347.961 188.693 349.768 184.849 352.282 180.83C354.796 176.811 358.882 173.054 364.539 169.559C370.039 166.065 375.381 163.968 380.567 163.269C385.752 162.57 390.702 162.832 395.416 164.055C400.13 165.278 404.53 167.2 408.615 169.821C412.858 172.442 416.708 175.326 420.165 178.471C422.522 180.568 424.408 183.626 425.822 187.645C427.236 191.489 428.336 195.857 429.122 200.75C429.907 205.643 430.457 210.798 430.772 216.215C431.243 221.457 431.557 226.611 431.715 231.679C431.872 236.572 431.95 241.115 431.95 245.309C432.107 249.328 432.422 252.648 432.893 255.269C433.522 259.113 434.622 262.433 436.193 265.229C437.764 267.85 439.493 270.121 441.378 272.044C443.264 273.791 445.15 275.189 447.035 276.237C448.921 277.286 450.571 278.072 451.985 278.596C452.928 279.12 453.792 279.47 454.578 279.645C456.149 280.344 457.249 280.344 457.878 279.645C456.935 282.091 456.071 284.188 455.285 285.935C454.499 287.683 453.871 289.168 453.399 290.391C452.771 291.789 452.221 292.925 451.749 293.799C451.278 294.847 450.728 295.808 450.099 296.682C449.628 297.555 449 298.516 448.214 299.565C447.428 300.613 446.642 301.749 445.857 302.972C443.814 302.099 441.85 301.05 439.964 299.827C438.236 298.604 436.664 297.468 435.25 296.42C433.522 295.196 431.95 293.973 430.536 292.75C429.122 291.527 427.786 290.129 426.529 288.556C425.429 287.158 424.251 285.673 422.993 284.101C421.894 282.528 420.951 280.781 420.165 278.858C419.222 281.13 416.944 284.363 413.33 288.556C409.873 292.75 405.316 296.594 399.659 300.089C394.002 303.409 387.402 305.768 379.86 307.166C372.474 308.564 364.303 307.603 355.346 304.283C351.418 302.885 347.725 300.875 344.268 298.254C340.811 295.459 337.826 292.139 335.311 288.294C332.954 284.45 331.226 280.082 330.126 275.189C329.183 270.121 329.262 264.53 330.362 258.414C331.462 252.298 333.426 247.143 336.254 242.95C339.083 238.756 342.461 235.348 346.39 232.727C350.318 230.106 354.718 228.097 359.589 226.699C364.46 225.301 369.489 224.34 374.674 223.816C378.76 223.641 382.845 223.903 386.931 224.602C390.388 225.301 394.002 226.611 397.773 228.534C401.544 230.281 404.766 232.989 407.437 236.659C407.28 227.398 406.966 220.059 406.494 214.642C406.18 209.05 405.866 204.769 405.551 201.799C404.923 198.304 404.373 195.857 403.901 194.46C403.116 193.236 402.251 191.838 401.309 190.266C400.523 188.693 399.502 187.295 398.244 186.072C396.987 184.674 395.416 183.538 393.53 182.665C391.645 181.791 389.445 181.442 386.931 181.616C384.259 181.791 382.138 182.577 380.567 183.975C378.995 185.373 377.738 187.033 376.795 188.955C376.01 190.703 375.538 192.625 375.381 194.722C375.224 196.819 375.303 198.653 375.617 200.226C375.931 201.274 376.403 202.41 377.031 203.633C377.66 204.682 378.524 205.818 379.624 207.041C380.724 208.264 382.217 209.312 384.102 210.186C380.488 210.71 377.267 211.147 374.438 211.497C371.61 211.671 369.174 211.933 367.132 212.283C364.774 212.632 362.732 212.895 361.003 213.069C359.275 213.244 357.232 213.593 354.875 214.118C352.832 214.467 350.318 214.904 347.332 215.428C344.347 215.952 340.89 216.651 336.961 217.525C337.904 216.302 338.768 215.166 339.554 214.118C340.34 212.895 341.047 211.846 341.675 210.972C342.304 209.924 342.933 208.963 343.561 208.089ZM378.917 239.28C376.088 239.455 373.26 240.241 370.431 241.639C367.603 242.862 365.089 244.697 362.889 247.143C360.689 249.415 358.803 252.123 357.232 255.269C355.818 258.239 355.111 261.559 355.111 265.229C355.111 268.898 355.896 272.131 357.468 274.927C359.196 277.548 361.396 279.732 364.067 281.479C366.896 283.227 369.881 284.275 373.024 284.625C376.324 284.974 379.545 284.625 382.688 283.576C385.674 282.353 388.502 280.431 391.173 277.81C393.845 275.014 396.123 272.044 398.009 268.898C399.894 265.578 401.23 262.346 402.016 259.2C402.801 255.88 402.88 253.172 402.251 251.075C400.994 246.532 398.166 243.386 393.766 241.639C389.366 239.717 384.416 238.931 378.917 239.28Z" fill="#D9D9D9"/>
<path d="M149.309 192.915C154.055 193.265 158.249 193.528 161.888 193.703C165.685 193.879 168.85 194.054 171.381 194.229C174.23 194.404 176.761 194.492 178.976 194.492C181.192 194.492 183.723 194.404 186.571 194.229C189.103 194.054 192.188 193.791 195.828 193.44C199.625 192.915 203.976 192.214 208.882 191.338C205.084 193.966 201.999 196.42 199.625 198.698C197.41 200.801 195.669 202.728 194.404 204.481C192.98 206.409 192.03 208.161 191.556 209.738C191.239 211.14 190.923 213.944 190.606 218.15C190.448 222.181 190.29 226.912 190.131 232.345C190.131 237.602 190.211 243.21 190.369 249.168C190.527 255.126 190.764 260.559 191.081 265.466C191.397 270.197 191.872 274.228 192.505 277.558C193.138 280.712 193.929 282.202 194.878 282.026C196.144 280.8 198.201 276.681 201.049 269.672C202.157 266.693 203.502 262.925 205.084 258.368C206.666 253.637 208.486 247.941 210.543 241.282C212.6 234.448 214.894 226.474 217.426 217.361C220.116 208.249 223.122 197.646 226.445 185.554H247.094C247.727 197.471 248.439 207.898 249.23 216.836C250.021 225.773 250.812 233.571 251.603 240.231C252.394 246.715 253.106 252.235 253.739 256.791C254.53 261.172 255.321 264.765 256.113 267.569C257.853 274.228 259.594 277.821 261.334 278.346C262.758 277.996 264.261 275.98 265.844 272.3C267.584 268.62 269.166 264.064 270.591 258.631C272.173 253.199 273.597 247.328 274.863 241.019C276.128 234.535 277.236 228.489 278.185 222.881C279.135 217.274 279.768 212.367 280.084 208.161C280.401 203.955 280.401 201.326 280.084 200.275C279.61 199.224 278.66 197.734 277.236 195.806C275.97 194.229 274.23 192.301 272.015 190.023C269.958 187.745 267.109 185.029 263.47 181.874C267.901 182.751 272.094 183.364 276.049 183.714C280.163 183.89 283.803 184.065 286.967 184.24C290.606 184.415 293.929 184.415 296.935 184.24C300.1 184.24 303.977 184.153 308.565 183.977C312.521 183.802 317.426 183.714 323.28 183.714C329.293 183.714 336.334 183.539 344.404 183.189C337.284 185.642 331.587 188.008 327.315 190.286C323.201 192.389 320.037 194.404 317.822 196.332C315.132 198.435 313.233 200.45 312.125 202.378C311.018 205.007 309.277 210.527 306.904 218.938C305.954 222.443 304.768 226.824 303.344 232.082C301.92 237.164 300.258 243.21 298.36 250.22C296.461 257.229 294.325 265.378 291.951 274.666C289.578 283.779 286.888 294.206 283.882 305.947C282.141 305.597 280.322 305.422 278.423 305.422C276.682 305.246 275.021 305.159 273.439 305.159H267.98C266.081 305.334 264.024 305.509 261.809 305.684C259.91 305.86 257.695 306.123 255.163 306.473C252.632 306.823 249.863 307.262 246.856 307.787L232.616 243.911L209.356 307.787L182.774 306.999C179.451 287.196 176.761 271.424 174.704 259.683C172.806 247.766 171.223 238.653 169.957 232.345C168.533 224.984 167.584 219.815 167.109 216.836C166.318 213.681 165.131 210.614 163.549 207.635C162.283 205.182 160.464 202.641 158.09 200.012C155.717 197.208 152.79 194.842 149.309 192.915Z" fill="#D9D9D9"/>
<path d="M143.386 172.652C142.299 177.888 141.313 182.476 140.429 186.415C139.544 190.355 138.774 193.722 138.118 196.517C137.378 199.643 136.791 202.427 136.36 204.867C135.96 206.672 135.459 209.125 134.857 212.227C134.202 215.022 133.415 218.708 132.499 223.283C131.694 227.682 130.618 233.39 129.269 240.406C127.037 234.962 124.648 230.255 122.101 226.285C119.555 222.315 116.963 218.905 114.326 216.055C111.688 213.205 109.019 210.991 106.318 209.414C103.729 207.659 101.206 206.287 98.7498 205.297C93.0916 203.133 87.396 202.395 81.6631 203.083C74.2625 204.851 68.6148 207.258 64.7199 210.305C60.937 213.174 58.3288 216.233 56.8954 219.48C55.4354 222.574 54.9025 225.663 55.2966 228.748C55.6641 231.68 56.4366 234.068 57.6139 235.912C58.6262 237.627 61.4233 239.345 66.0052 241.067C70.7257 242.764 76.344 244.698 82.8599 246.87C89.4878 248.864 96.6112 251.245 104.23 254.012C111.822 256.626 118.94 259.796 125.584 263.522C132.34 267.071 138.206 271.249 143.182 276.055C148.27 280.684 151.554 286.023 153.035 292.072C154.809 299.804 155.965 306.855 156.503 313.227C157.04 319.598 156.033 325.293 153.481 330.313C150.928 335.333 146.346 339.761 139.734 343.599C133.26 347.412 123.912 350.703 111.69 353.473C99.0519 356.314 88.4599 357.379 79.9139 356.666C71.3679 355.954 64.2126 354.21 58.4479 351.434C52.8217 348.633 48.3757 345.232 45.1098 341.23C41.9825 337.205 39.5185 333.299 37.7178 329.514C35.8905 325.576 34.516 322.19 33.5944 319.355C32.6462 316.367 31.634 314.651 30.5577 314.209C29.3164 313.638 28.0883 313.143 26.8735 312.725C25.7973 312.282 24.6651 311.928 23.477 311.663C22.2623 311.245 21.0608 310.903 19.8727 310.638L78.4625 289.27C75.5319 292.937 73.3233 296.24 71.8367 299.181C70.4886 302.098 69.5028 304.636 68.8794 306.795C68.1706 309.284 67.7816 311.56 67.7122 313.622C67.808 315.813 68.8975 318.382 70.9806 321.329C73.0637 324.276 75.6876 327.05 78.8522 329.65C82.1288 332.073 85.7411 333.964 89.689 335.324C93.637 336.683 97.5237 336.87 101.349 335.885C106.118 334.578 109.839 332.587 112.514 329.911C115.162 327.082 116.955 323.851 117.893 320.218C118.97 316.56 119.3 312.718 118.885 308.691C118.469 304.663 117.444 300.821 115.808 297.165C114.285 293.332 112.26 289.901 109.735 286.874C107.183 283.693 104.391 281.186 101.36 279.351C98.6852 277.926 94.7079 276.809 89.428 275.998C84.2865 275.163 78.4951 274.284 72.0537 273.361C65.7507 272.413 59.1868 271.196 52.3617 269.71C45.6752 268.199 39.4363 265.979 33.6449 263.049C27.9921 260.096 23.1891 256.284 19.236 251.615C15.4214 246.92 13.2213 240.84 12.6355 233.373C12.0977 227.002 12.993 221.484 15.3216 216.818C17.762 211.976 21.1241 207.919 25.4079 204.646C29.8036 201.196 34.804 198.35 40.4091 196.108C46.1528 193.842 52.0589 192.099 58.1275 190.879C64.308 189.483 70.4165 188.493 76.4531 187.91C82.6282 187.302 88.1933 186.881 93.1483 186.645C98.1033 186.409 102.296 186.306 105.728 186.336C109.271 186.189 111.471 186.12 112.329 186.127C115.984 185.803 119.572 185.097 123.094 184.007C126.227 183.144 129.57 181.849 133.124 180.124C136.79 178.221 140.211 175.73 143.386 172.652Z" fill="#D9D9D9"/>
<path d="M522.578 72.298L566.394 72.8218C563.854 83.4738 561.949 92.5542 560.679 100.063C559.567 107.572 558.853 113.858 558.535 118.922C557.9 124.685 557.742 129.574 558.059 133.59C558.535 137.258 559.329 141.187 560.44 145.377C561.393 148.87 562.822 152.886 564.727 157.426C566.632 161.967 569.172 166.507 572.347 171.047C570.442 170.349 568.378 169.825 566.156 169.475C563.933 169.126 561.869 168.864 559.964 168.69C557.742 168.515 555.519 168.515 553.297 168.69C551.074 168.864 548.613 169.126 545.914 169.475C543.692 169.825 540.993 170.261 537.818 170.785C534.643 171.309 531.309 172.007 527.817 172.881C530.198 165.023 532.024 158.212 533.294 152.45C534.722 146.687 535.754 141.885 536.389 138.043C537.024 133.503 537.421 129.836 537.58 127.042C537.58 123.55 537.58 119.621 537.58 115.255C537.58 110.715 537.58 106.349 537.58 102.158C537.58 97.9675 537.501 94.3004 537.342 91.1572C537.183 87.8394 536.866 85.7439 536.389 84.8708L534.008 82.2515C533.055 81.3783 531.627 80.156 529.722 78.5844C527.975 76.8382 525.594 74.7427 522.578 72.298ZM539.485 31.9602C542.819 30.0393 546.153 29.5154 549.486 30.3886C552.979 31.2617 555.678 32.9206 557.583 35.3653C559.488 37.81 560.123 40.6913 559.488 44.0091C559.012 47.3269 556.472 50.5575 551.868 53.7007C547.264 56.6692 543.216 57.717 539.723 56.8439C536.231 55.9708 533.77 54.1372 532.341 51.3433C530.912 48.5493 530.674 45.3188 531.627 41.6517C532.579 37.81 535.199 34.5795 539.485 31.9602Z" fill="#D9D9D9"/>
<path d="M505.94 9.91659C504.749 13.8465 503.696 17.4171 502.779 20.6283C502.02 23.8283 501.318 26.6746 500.675 29.1672C500.052 32.0079 499.488 34.4949 498.981 36.6282C498.495 39.1095 497.951 41.9445 497.349 45.1332C496.726 47.9739 495.908 51.5275 494.896 55.7941C494.03 59.8754 492.974 64.7568 491.729 70.4381C489.981 62.1759 487.314 55.7272 483.727 51.092C480.13 46.2828 476.521 42.6104 472.9 40.0746C468.629 37.236 464.094 35.2901 459.297 34.2368C450.716 33.2805 444.596 33.895 440.935 36.0801C437.275 38.2653 434.902 40.8822 433.818 43.9307C433.261 45.194 432.645 46.8109 431.971 48.7815C431.445 50.5668 431.002 52.4334 430.642 54.3814C430.44 56.3181 430.474 58.2379 430.743 60.1408C431.013 62.0436 431.812 63.5589 433.141 64.6866C433.978 65.5002 436.093 66.5715 439.486 67.9004C442.869 69.0554 446.895 70.4261 451.566 72.0128C456.384 73.4141 461.448 74.9725 466.758 76.6879C472.226 78.3921 477.378 80.1189 482.217 81.8682C487.055 83.6175 491.265 85.4121 494.846 87.2518C498.426 89.0914 500.818 90.8418 502.02 92.5029C503.066 94.1752 504.225 96.451 505.499 99.3301C506.92 102.024 507.968 105.094 508.644 108.54C509.466 111.801 509.828 115.27 509.727 118.947C509.774 122.439 509.114 125.981 507.746 129.574C506.378 133.167 504.051 136.567 500.766 139.774C497.639 142.969 493.301 145.727 487.754 148.048C481.285 150.785 474.954 151.851 468.762 151.247C462.57 150.644 456.819 149.484 451.509 147.769C446.356 146.042 441.837 144.357 437.952 142.714C434.057 140.897 431.334 140.219 429.782 140.68C428.073 141.152 426.164 142.25 424.055 143.974C421.946 145.699 419.921 147.504 417.98 149.391C416.185 151.093 414.621 152.69 413.288 154.184C411.945 155.504 411.263 155.99 411.242 155.642C411.222 155.294 411.396 154.233 411.766 152.459C412.293 150.673 412.799 148.54 413.285 146.059C413.918 143.392 414.462 140.557 414.918 137.554C415.52 134.365 415.897 131.367 416.048 128.561C416.23 126.276 416.459 123.463 416.737 120.123C416.878 117.142 417.062 113.547 417.289 109.337C417.663 104.941 418.064 99.6702 418.493 93.5233C419.544 97.9912 420.874 101.827 422.483 105.032C424.248 108.225 425.91 110.989 427.468 113.324C429.36 115.984 431.149 118.214 432.833 120.015C435.334 122.282 438.217 124.347 441.484 126.209C444.907 128.06 448.315 129.65 451.708 130.979C455.091 132.134 458.286 132.778 461.293 132.911C464.301 133.045 466.795 132.516 468.778 131.325C470.76 130.134 472.377 128.096 473.629 125.21C475.037 122.313 475.959 119.189 476.394 115.837C476.829 112.486 476.881 109.337 476.551 106.39C476.21 103.269 475.355 100.797 473.985 98.973C472.97 97.8226 470.678 96.4146 467.107 94.749C463.694 93.072 459.563 91.2718 454.714 89.3485C450.023 87.4138 445.012 85.4148 439.681 83.3513C434.508 81.2765 429.571 79.1848 424.869 77.0761C420.314 74.7822 416.477 72.6114 413.358 70.5638C410.386 68.3309 408.686 66.2687 408.259 64.3772C407.782 61.6156 407.367 58.5873 407.016 55.2924C406.655 51.8234 406.613 48.4189 406.891 45.0788C407.316 41.5534 408.223 38.1681 409.611 34.923C411.156 31.6665 413.519 28.8757 416.697 26.5504C418.817 25.0002 421.663 23.7472 425.238 22.7914C428.813 21.8356 432.801 21.1996 437.203 20.8834C441.594 20.3932 446.163 20.2397 450.91 20.4229C455.646 20.4321 460.157 20.6323 464.442 21.0234C468.874 21.2293 472.845 21.643 476.354 22.2646C480.021 22.8749 482.818 23.4603 484.745 24.0208C486.997 24.7328 489.36 24.6504 491.834 23.7737C494.004 23.0935 496.296 21.793 498.709 19.8722C501.122 17.9514 503.533 14.6329 505.94 9.91659Z" fill="#D9D9D9"/>
<path d="M346.395 43.318L390.211 43.8419C387.671 54.4938 385.766 63.5742 384.496 71.083C383.384 78.5917 382.67 84.8782 382.352 89.9422C381.717 95.7048 381.559 100.594 381.876 104.611C382.352 108.278 383.146 112.207 384.257 116.398C385.21 119.89 386.639 123.906 388.544 128.446C390.449 132.987 392.989 137.527 396.164 142.067C394.259 141.369 392.195 140.845 389.973 140.495C387.75 140.146 385.686 139.884 383.781 139.71C381.559 139.535 379.336 139.535 377.113 139.71C374.891 139.884 372.43 140.146 369.731 140.495C367.509 140.845 364.81 141.281 361.635 141.805C358.46 142.329 355.126 143.027 351.634 143.901C354.015 136.043 355.841 129.232 357.111 123.47C358.539 117.707 359.571 112.905 360.206 109.063C360.841 104.523 361.238 100.856 361.397 98.0622C361.397 94.5697 361.397 90.6407 361.397 86.2751C361.397 81.735 361.397 77.3694 361.397 73.1784C361.397 68.9875 361.318 65.3204 361.159 62.1772C361 58.8594 360.682 56.7639 360.206 55.8908L357.825 53.2715C356.872 52.3984 355.444 51.176 353.539 49.6044C351.792 47.8582 349.411 45.7627 346.395 43.318ZM363.302 2.98019C366.636 1.05934 369.97 0.535472 373.303 1.40858C376.796 2.2817 379.495 3.94061 381.4 6.38533C383.305 8.83004 383.94 11.7113 383.305 15.0291C382.829 18.347 380.289 21.5775 375.685 24.7207C371.081 27.6893 367.033 28.737 363.54 27.8639C360.047 26.9908 357.587 25.1572 356.158 22.3633C354.729 19.5693 354.491 16.3388 355.444 12.6717C356.396 8.83004 359.016 5.59953 363.302 2.98019Z" fill="#D9D9D9"/>
<path d="M223.962 33.4989C226.631 34.0206 229.378 34.4554 232.203 34.8032C234.871 34.9771 237.304 35.151 239.502 35.3249C242.013 35.4988 244.446 35.5858 246.801 35.5858C249.155 35.5858 251.824 35.4988 254.806 35.3249C257.317 35.151 260.3 34.8902 263.753 34.5424C267.363 34.1945 271.287 33.6728 275.525 32.9772C273.014 34.5424 271.052 36.1944 269.639 37.9335C268.226 39.6725 267.128 41.2377 266.343 42.6289C265.401 44.3679 264.773 45.9331 264.459 47.3243C264.145 48.7155 264.224 51.585 264.695 55.9326C265.166 60.2802 265.793 65.3234 266.578 71.0622C267.52 76.8011 268.54 82.8008 269.639 89.0613C270.738 95.3219 271.837 101.061 272.935 106.278C274.191 111.495 275.29 115.843 276.232 119.321C277.33 122.799 278.194 124.451 278.822 124.277C279.449 124.277 280.391 122.538 281.647 119.06C283.06 115.582 284.629 111.321 286.356 106.278C288.082 101.061 289.887 95.4088 291.771 89.3222C293.655 83.0616 295.303 77.2358 296.715 71.8448C298.128 66.4538 299.227 61.9323 300.012 58.2803C300.953 54.4544 301.346 52.1936 301.189 51.498C300.718 50.8024 300.169 49.8459 299.541 48.6286C298.442 46.7156 296.009 43.4115 292.242 38.7161C296.794 39.0639 300.718 39.4117 304.014 39.7595C307.311 39.9334 309.979 40.1942 312.019 40.542C314.374 40.8899 316.258 41.1507 317.67 41.3246C319.083 41.4985 321.123 41.4985 323.792 41.3246C325.989 41.3246 328.893 41.2377 332.503 41.0638C336.27 40.7159 340.901 40.1942 346.395 39.4986C342.314 42.1072 338.939 44.4549 336.27 46.5417C333.759 48.4547 331.797 50.1068 330.384 51.498C328.658 53.237 327.402 54.7152 326.617 55.9326C325.518 58.1933 323.556 63.5843 320.731 72.1057C319.475 75.7576 317.906 80.2791 316.022 85.6702C314.295 91.0612 312.176 97.5826 309.665 105.234C307.311 112.712 304.485 121.494 301.189 131.581C297.893 141.667 294.204 153.232 290.123 166.275L267.285 168.883C264.302 157.927 261.869 148.797 259.986 141.493C258.259 134.016 256.846 128.016 255.748 123.494C254.492 118.277 253.55 114.19 252.922 111.234C252.138 107.93 251.196 103.148 250.097 96.887C248.998 90.4525 247.9 83.9311 246.801 77.3228C245.702 70.7144 244.603 64.8017 243.505 59.5846C242.406 54.1935 241.542 50.8893 240.915 49.672C240.287 48.8025 239.188 47.5852 237.618 46.02C236.363 44.6288 234.636 42.9767 232.439 41.0638C230.241 38.9769 227.416 36.4553 223.962 33.4989Z" fill="#D9D9D9"/>
<path d="M110.449 157.644C111.556 151.875 112.346 146.806 112.821 142.436C113.453 137.892 113.928 134.133 114.244 131.162C114.56 127.666 114.718 124.694 114.718 122.247C114.56 119.276 114.402 115.78 114.244 111.759C114.244 107.564 114.086 103.457 113.769 99.4362C113.611 95.2411 113.374 91.5704 113.058 88.4241C112.742 85.1029 112.346 82.7432 111.872 81.3448C111.24 79.9464 110.37 78.4606 109.263 76.8875C107.05 73.9159 103.808 71.0318 99.5394 68.235C103.176 67.361 106.259 66.6619 108.789 66.1375C111.477 65.4383 113.69 64.8265 115.43 64.3021C117.327 63.6029 118.987 62.9911 120.41 62.4667C121.675 61.9424 123.177 61.418 124.916 60.8936C126.339 60.544 128.079 60.107 130.134 59.5826C132.189 59.0582 134.561 58.4464 137.249 57.7472L136.538 81.607C141.597 74.9647 146.736 69.983 151.953 66.6619C157.171 63.3407 162.073 60.981 166.658 59.5826C171.875 57.8346 177.014 56.9606 182.074 56.9606C188.398 57.3102 194.248 58.4464 199.624 60.3692C205.158 62.2919 209.901 64.5643 213.854 67.1863C217.965 69.6334 221.285 72.2554 223.815 75.0521C226.345 77.8489 227.847 80.296 228.321 82.3936C230.219 89.2106 230.693 95.5033 229.744 101.272C228.796 106.865 227.531 112.371 225.95 117.79C224.527 123.034 223.262 128.278 222.155 133.522C221.206 138.766 221.602 144.446 223.341 150.564C223.973 152.137 224.606 153.711 225.238 155.284C225.871 156.682 226.661 158.081 227.61 159.479C228.558 160.877 229.665 162.013 230.93 162.887C229.191 162.713 227.452 162.625 225.712 162.625C223.973 162.45 222.392 162.276 220.969 162.101C219.23 161.926 217.649 161.751 216.226 161.576C214.645 161.402 212.51 161.314 209.822 161.314C205.237 161.314 198.122 161.576 188.477 162.101C189.9 158.43 191.007 155.371 191.798 152.924C192.746 150.302 193.537 148.205 194.169 146.631C194.802 144.709 195.276 143.223 195.592 142.174C197.49 137.105 198.596 131.337 198.913 124.869C199.387 118.402 198.992 111.847 197.727 105.205C197.252 102.932 196.462 100.223 195.355 97.0765C194.248 93.9302 192.746 90.8712 190.849 87.8997C189.11 84.9281 186.975 82.3936 184.445 80.296C182.074 78.1984 179.307 76.9749 176.144 76.6253C172.982 76.2757 169.425 77.1497 165.472 79.2472C161.677 81.3448 157.566 85.1903 153.139 90.7838C149.819 95.5033 147.21 101.272 145.313 108.089C143.573 113.857 142.388 121.111 141.755 129.851C141.123 138.416 142.071 148.467 144.601 160.003C142.388 159.654 140.332 159.479 138.435 159.479C136.538 159.304 134.956 159.129 133.692 158.955C132.11 158.78 130.687 158.605 129.423 158.43C128 158.43 126.418 158.343 124.679 158.168C123.098 158.168 121.122 158.168 118.75 158.168C116.378 157.993 113.611 157.818 110.449 157.644Z" fill="#D9D9D9"/>
<path d="M35.8348 1.04676C41.1997 1.7446 45.6968 2.26798 49.326 2.6169C53.113 2.79136 56.1899 3.05305 58.5568 3.40197C61.3971 3.75089 63.6061 3.92535 65.1841 3.92535C66.9198 4.09981 69.5233 4.01258 72.9947 3.66366C75.9928 3.31474 80.0165 2.87859 85.0658 2.35521C90.2729 1.83183 96.9002 1.04676 104.948 0C101.318 3.4892 98.3992 6.89116 96.1901 10.2059C94.1388 13.3462 92.5609 16.1375 91.4564 18.58C90.0362 21.5458 89.1684 24.3371 88.8528 26.954C88.2216 31.1411 87.6694 36.8982 87.196 44.2256C86.8804 51.3784 86.5648 59.2291 86.2492 67.7776C85.9337 76.3262 85.7759 85.1364 85.7759 94.2083C85.7759 103.28 85.8548 111.916 86.0126 120.116C86.3281 128.141 86.8015 135.294 87.4327 141.574C88.2216 147.855 89.1684 152.391 90.2729 155.182C91.8508 158.322 93.5077 161.463 95.2434 164.603C96.8213 167.22 98.7148 169.924 100.924 172.715C103.133 175.507 105.658 177.775 108.498 179.519C99.1882 178.996 91.772 178.734 86.2492 178.734H77.7285C75.2038 178.734 71.9691 178.909 68.0243 179.257C64.7107 179.606 60.5292 179.955 55.4799 180.304C50.4305 180.653 44.3556 181.176 37.2549 181.874C40.8842 177.513 43.7244 173.326 45.7757 169.313C47.827 165.301 49.4838 161.811 50.7461 158.846C52.1663 155.356 53.113 152.042 53.5864 148.901C54.2175 144.365 54.6909 138.783 55.0065 132.153C55.4799 125.349 55.7955 118.109 55.9533 110.433C56.111 102.582 56.111 94.6444 55.9533 86.6193C55.9533 78.4197 55.7955 70.569 55.4799 63.0672C55.1643 55.5654 54.6909 48.7615 54.0598 42.6554C53.5864 36.5493 52.9552 31.6645 52.1663 28.0008C51.6929 25.7328 50.7461 23.2032 49.326 20.4118C48.0637 17.9694 46.328 15.178 44.1189 12.0377C42.0676 8.72299 39.3062 5.05933 35.8348 1.04676Z" fill="#D9D9D9"/>
</svg>
